<?xml version="1.0" standalone="no"?>
<!DOCTYPE svg PUBLIC "-//W3C//DTD SVG 20010904//EN"
 "http://www.w3.org/TR/2001/REC-SVG-20010904/DTD/svg10.dtd">
<svg version="1.0" xmlns="http://www.w3.org/2000/svg"
 width="678.000000pt" height="266.000000pt" viewBox="0 0 678.000000 266.000000"
 preserveAspectRatio="xMidYMid meet">

<g transform="translate(0.000000,266.000000) scale(0.100000,-0.100000)"
fill="#000000" stroke="none">
<path d="M749 2380 c-270 -69 -441 -294 -442 -585 -1 -187 93 -402 245 -561
l59 -61 52 48 51 47 -50 54 c-93 99 -173 239 -199 350 -29 123 -12 263 43 358
37 65 120 149 172 175 61 31 152 48 209 40 133 -20 242 -73 356 -172 67 -58
93 -57 171 5 126 101 208 143 314 162 128 23 236 -10 332 -103 174 -167 193
-412 50 -653 -46 -77 -82 -124 -129 -169 -18 -17 -33 -37 -33 -44 0 -7 21 -33
47 -58 l47 -46 53 59 c119 132 211 300 238 434 21 105 16 235 -14 331 -28 88
-104 203 -175 265 -148 128 -310 161 -514 104 -102 -28 -233 -98 -272 -145
-16 -19 -44 -19 -60 -1 -27 34 -169 111 -252 138 -97 31 -236 44 -299 28z"/>
<path d="M5160 1830 c-11 -11 -20 -29 -20 -40 0 -52 88 -81 123 -42 37 40 4
102 -53 102 -17 0 -39 -9 -50 -20z"/>
<path d="M2856 1561 c-53 -142 -96 -261 -96 -265 0 -3 29 -6 64 -6 l64 0 19
58 20 57 95 3 96 3 19 -58 20 -58 61 -3 c46 -2 62 0 62 10 0 11 -106 315 -166
476 l-16 42 -73 0 -73 0 -96 -259z m234 -58 c0 -2 -29 -3 -65 -3 -42 0 -65 4
-65 11 0 13 36 138 52 179 8 22 13 14 44 -80 18 -58 34 -106 34 -107z"/>
<path d="M4930 1766 c-44 -11 -45 -13 -48 -54 -3 -41 -4 -42 -38 -42 -35 0
-35 0 -32 -42 3 -40 5 -43 36 -46 l32 -3 0 -114 c0 -111 1 -116 28 -146 21
-24 38 -32 74 -36 26 -3 58 -3 72 1 23 6 26 12 26 50 0 41 -1 43 -25 38 -46
-8 -55 11 -55 114 l0 94 40 0 40 0 0 45 0 45 -40 0 -40 0 0 55 c0 61 1 60 -70
41z"/>
<path d="M940 1349 l-385 -379 93 0 94 0 284 282 c157 156 292 283 300 283 8
0 146 -132 308 -292 l293 -293 94 0 93 0 -320 318 c-175 174 -353 349 -394
389 l-75 71 -385 -379z"/>
<path d="M3522 1664 c-19 -10 -36 -23 -39 -31 -9 -22 -23 -15 -23 12 0 24 -3
25 -55 25 l-55 0 0 -190 0 -190 54 0 54 0 3 131 c4 123 5 132 28 150 31 25 66
24 85 -3 13 -18 16 -51 16 -150 l0 -128 60 0 60 0 0 124 c0 110 2 126 21 150
23 29 55 33 85 12 17 -13 19 -29 22 -150 l4 -136 59 0 59 0 0 133 c0 144 -8
188 -41 223 -42 45 -134 44 -189 -2 l-30 -25 -23 27 c-30 35 -105 43 -155 18z"/>
<path d="M4129 1653 c-71 -37 -99 -83 -99 -171 0 -128 72 -200 201 -202 87 0
157 37 189 100 24 47 27 144 6 193 -41 99 -184 137 -297 80z m166 -88 c21 -20
25 -34 25 -85 0 -51 -4 -65 -25 -85 -24 -25 -65 -32 -100 -19 -39 15 -59 113
-34 168 23 49 95 61 134 21z"/>
<path d="M4674 1646 l-34 -34 0 29 c0 29 0 29 -60 29 l-60 0 0 -190 0 -190 60
0 60 0 0 108 c0 89 3 112 20 140 18 28 25 32 65 32 l45 0 0 55 c0 55 0 55 -31
55 -22 0 -41 -10 -65 -34z"/>
<path d="M5848 1671 c-82 -27 -128 -99 -128 -202 0 -84 28 -135 90 -166 53
-27 151 -31 205 -9 32 14 35 19 35 55 l0 40 -46 -16 c-81 -28 -164 -1 -164 54
0 23 1 23 121 23 l121 0 -4 65 c-4 68 -21 101 -69 137 -29 22 -120 32 -161 19z
m100 -87 c12 -8 22 -26 22 -40 0 -23 -3 -24 -65 -24 -58 0 -65 2 -65 19 0 22
44 61 69 61 9 0 27 -7 39 -16z"/>
<path d="M5150 1480 l0 -190 60 0 60 0 0 190 0 190 -60 0 -60 0 0 -190z"/>
<path d="M5350 1625 l0 -44 84 -3 84 -3 -94 -118 c-61 -77 -94 -127 -94 -143
l0 -24 173 2 172 3 3 38 3 37 -90 0 c-50 0 -91 4 -91 9 0 5 38 58 85 117 66
85 85 116 85 142 l0 32 -160 0 -160 0 0 -45z"/>
<path d="M1273 1331 c-58 -27 -103 -91 -103 -148 0 -57 21 -96 72 -133 69 -50
154 -38 211 30 72 86 42 195 -67 246 -61 29 -60 28 -113 5z"/>
<path d="M915 1010 c-27 -27 -47 -51 -44 -53 9 -9 208 -129 302 -182 53 -31
113 -59 131 -62 54 -8 121 20 277 118 79 51 156 99 171 108 16 9 28 18 28 21
0 3 -22 28 -50 55 -37 36 -52 46 -62 38 -28 -23 -332 -203 -342 -203 -7 0 -45
20 -85 45 -40 25 -75 45 -78 45 -3 0 -28 16 -54 35 -27 19 -52 35 -55 35 -3 0
-22 11 -42 25 -20 14 -39 25 -42 25 -3 0 -28 -22 -55 -50z"/>
</g>
</svg>
